# xmcd
# 
# Track frame offsets:
#     150
#     14377
#     29785
#     42687
#     56990
#     82925
#     92755
#     102875
#     116937
#     127970
#     136847
#     149132
#     167090
#     178037
#     191257
#     206345
# 
# Disc length: 2975
# 
# Revision: 2
# Processed by: cddbd v1.5.2PL0 Copyright (c) Steve Scherf et al.
# Submitted via: fre:ac v1.1beta1pre4
# 
DISCID=ea0b9d10
DTITLE=Various Artist - Original Dixieland
DYEAR=2000
DGENRE=Jazz
TTITLE0=Irakli Jazz Band - Oh When The Saints Go Marching In
TTITLE1=Irakli Jazz Band - Nobody Knows
TTITLE2=Irakli Jazz Band - The Good Book
TTITLE3=Irakli Jazz Band - Go Down Moses
TTITLE4=High Society Jazz Band - Tiger Rag
TTITLE5=Irakli Jazz Band - Go Tell It On The Montain
TTITLE6=La Ferrière Dixieland Jazz Band - Mahogany Hall Stomp
TTITLE7=La Ferrière Dixieland Jazz Band - The Merry Band
TTITLE8=Irakli Jazz Band - Do Lord
TTITLE9=Irakli Jazz Band - Jericho
TTITLE10=La Ferrière Dixieland Jazz Band - New Orleans Shuffle
TTITLE11=Irakli Jazz Band - Swing Low, Sweet Chariot
TTITLE12=La Ferrière Dixieland Jazz Band - Ja Da
TTITLE13=Irakli Jazz Band - Down By The Riverside
TTITLE14=High Society Jazz Band - Look at'em Doing It
TTITLE15=High Society Jazz Band - The Jazz Me Blues
EXTD=YEAR: 2000
EXTT0=
EXTT1=
EXTT2=
EXTT3=
EXTT4=
EXTT5=
EXTT6=
EXTT7=
EXTT8=
EXTT9=
EXTT10=
EXTT11=
EXTT12=
EXTT13=
EXTT14=
EXTT15=
PLAYORDER=
